<?xml version="1.0" encoding="utf-8"?>
<svg xmlns="http://www.w3.org/2000/svg" xmlns:xlink="http://www.w3.org/1999/xlink" style="margin: auto; background: rgba(0, 0, 0, 0) none repeat scroll 0% 0%; display: block; shape-rendering: auto;" width="200px" height="200px" viewBox="0 0 100 100" preserveAspectRatio="xMidYMid">
<g transform="translate(50 50)">
<g>
<animateTransform attributeName="transform" type="rotate" values="0;45" keyTimes="0;1" dur="0.3496503496503497s" repeatCount="indefinite"></animateTransform><path d="M17.291616465790582 -5 L26.291616465790582 -5 L26.291616465790582 5 L17.291616465790582 5 A18 18 0 0 1 15.762553166570223 8.691485354704746 L15.762553166570223 8.691485354704746 L22.12651419724915 15.055446385383673 L15.055446385383675 22.12651419724915 L8.691485354704747 15.762553166570221 A18 18 0 0 1 5 17.291616465790582 L5 17.291616465790582 L5.000000000000001 26.291616465790582 L-4.999999999999997 26.291616465790582 L-4.999999999999998 17.291616465790582 A18 18 0 0 1 -8.691485354704742 15.762553166570225 L-8.691485354704742 15.762553166570225 L-15.05544638538367 22.126514197249154 L-22.12651419724915 15.055446385383675 L-15.762553166570223 8.691485354704746 A18 18 0 0 1 -17.29161646579058 5.000000000000005 L-17.29161646579058 5.000000000000005 L-26.29161646579058 5.000000000000006 L-26.291616465790582 -5 L-17.291616465790582 -5.000000000000001 A18 18 0 0 1 -15.762553166570225 -8.69148535470474 L-15.762553166570225 -8.69148535470474 L-22.126514197249154 -15.055446385383666 L-15.055446385383682 -22.126514197249143 L-8.691485354704753 -15.762553166570218 A18 18 0 0 1 -4.999999999999998 -17.291616465790582 L-4.999999999999998 -17.291616465790582 L-5 -26.291616465790582 L4.99999999999999 -26.291616465790586 L4.999999999999992 -17.291616465790586 A18 18 0 0 1 8.691485354704747 -15.762553166570221 L8.691485354704747 -15.762553166570221 L15.055446385383675 -22.12651419724915 L22.126514197249143 -15.055446385383684 L15.762553166570216 -8.691485354704755 A18 18 0 0 1 17.291616465790582 -5 M0 -11A11 11 0 1 0 0 11 A11 11 0 1 0 0 -11" fill="#85a2b6"></path></g></g>
<!-- [ldio] generated by https://loading.io/ --></svg>