<?xml version="1.0" encoding="UTF-8" standalone="no"?>
<!-- Created with Inkscape (http://www.inkscape.org/) -->

<svg
   xmlns:dc="http://purl.org/dc/elements/1.1/"
   xmlns:cc="http://creativecommons.org/ns#"
   xmlns:rdf="http://www.w3.org/1999/02/22-rdf-syntax-ns#"
   xmlns:svg="http://www.w3.org/2000/svg"
   xmlns="http://www.w3.org/2000/svg"
   xmlns:xlink="http://www.w3.org/1999/xlink"
   xmlns:sodipodi="http://sodipodi.sourceforge.net/DTD/sodipodi-0.dtd"
   xmlns:inkscape="http://www.inkscape.org/namespaces/inkscape"
   width="176.03777mm"
   height="206.03253mm"
   viewBox="0 0 176.03777 206.03253"
   version="1.1"
   id="svg1017"
   inkscape:version="0.92.4 (5da689c313, 2019-01-14)"
   sodipodi:docname="logo_3.svg">
  <defs
     id="defs1011">
    <linearGradient
       inkscape:collect="always"
       xlink:href="#linearGradient4031"
       id="linearGradient4033"
       x1="260.04822"
       y1="-12.052397"
       x2="260.04822"
       y2="-3.6796992"
       gradientUnits="userSpaceOnUse"
       gradientTransform="matrix(4.692082,0,0,4.692082,-1453.8153,256.33913)" />
    <linearGradient
       inkscape:collect="always"
       id="linearGradient4031">
      <stop
         style="stop-color:#d5f6ff;stop-opacity:1;"
         offset="0"
         id="stop4027" />
      <stop
         style="stop-color:#d5f6ff;stop-opacity:0;"
         offset="1"
         id="stop4029" />
    </linearGradient>
    <linearGradient
       gradientTransform="matrix(9.2241922,0,0,9.2241922,-3857.896,449.66519)"
       inkscape:collect="always"
       xlink:href="#linearGradient923"
       id="linearGradient925"
       x1="386.53003"
       y1="-29.898743"
       x2="386.53003"
       y2="-21.372774"
       gradientUnits="userSpaceOnUse" />
    <linearGradient
       inkscape:collect="always"
       id="linearGradient923">
      <stop
         style="stop-color:#aaeeff;stop-opacity:1;"
         offset="0"
         id="stop919" />
      <stop
         style="stop-color:#aaeeff;stop-opacity:0;"
         offset="1"
         id="stop921" />
    </linearGradient>
  </defs>
  <sodipodi:namedview
     id="base"
     pagecolor="#ffffff"
     bordercolor="#666666"
     borderopacity="1.0"
     inkscape:pageopacity="0.0"
     inkscape:pageshadow="2"
     inkscape:zoom="0.35"
     inkscape:cx="973.20779"
     inkscape:cy="510.7814"
     inkscape:document-units="mm"
     inkscape:current-layer="layer1"
     showgrid="false"
     fit-margin-top="0"
     fit-margin-left="0"
     fit-margin-right="0"
     fit-margin-bottom="0"
     inkscape:window-width="1920"
     inkscape:window-height="973"
     inkscape:window-x="0"
     inkscape:window-y="37"
     inkscape:window-maximized="1" />
  <metadata
     id="metadata1014">
    <rdf:RDF>
      <cc:Work
         rdf:about="">
        <dc:format>image/svg+xml</dc:format>
        <dc:type
           rdf:resource="http://purl.org/dc/dcmitype/StillImage" />
        <dc:title></dc:title>
      </cc:Work>
    </rdf:RDF>
  </metadata>
  <g
     inkscape:label="Camada 1"
     inkscape:groupmode="layer"
     id="layer1"
     transform="translate(326.28623,-77.945045)">
    <path
       style="opacity:1;fill:#0088aa;fill-opacity:1;stroke:none;stroke-width:2.84830165;stroke-linecap:butt;stroke-linejoin:round;stroke-miterlimit:4;stroke-dasharray:none;stroke-dashoffset:0;stroke-opacity:1"
       d="m -296.85732,266.05313 c -8.27963,-7.03437 -12.13424,-11.17428 -17.58177,-18.8833 -8.82626,-12.4903 -12.50053,-24.05061 -11.75273,-36.97785 1.51489,-26.19117 15.90436,-58.35824 43.76151,-97.82727 10.05953,-14.252664 26.49631,-34.890041 27.40729,-34.41149 0.77575,0.407709 14.7053,17.70925 20.25937,25.1636 27.09173,36.36102 43.77718,68.77576 49.06799,95.32427 1.58241,7.9401 1.72179,21.31785 0.27858,26.72775 -6.71688,25.17724 -32.46971,51.60539 -59.39163,57.86649 -17.77529,4.13391 -38.95348,-6.02764 -52.04879,-16.9822 z"
       id="path927"
       inkscape:connector-curvature="0"
       sodipodi:nodetypes="ccssccscac"
       inkscape:export-filename="/home/renato/path4021.png"
       inkscape:export-xdpi="96"
       inkscape:export-ydpi="96" />
    <path
       sodipodi:nodetypes="ccssccscac"
       inkscape:connector-curvature="0"
       id="path110"
       d="m -282.21382,266.05313 c -8.27964,-7.03437 -12.13424,-11.17428 -17.58177,-18.8833 -8.82626,-12.4903 -12.50053,-24.05061 -11.75273,-36.97785 1.51489,-26.19117 15.90435,-58.35824 43.76151,-97.82727 10.05953,-14.252664 26.4963,-34.890041 27.40728,-34.41149 0.77576,0.407709 14.7053,17.70925 20.25937,25.1636 27.09173,36.36102 43.77719,68.77576 49.068,95.32427 1.58241,7.9401 1.72179,21.31785 0.27857,26.72775 -6.71687,25.17724 -32.46971,51.60539 -59.39162,57.86649 -17.77529,4.13391 -38.95349,-6.02764 -52.04879,-16.9822 z"
       style="opacity:1;fill:url(#linearGradient925);fill-opacity:1;stroke:none;stroke-width:2.84830165;stroke-linecap:butt;stroke-linejoin:round;stroke-miterlimit:4;stroke-dasharray:none;stroke-dashoffset:0;stroke-opacity:1"
       inkscape:export-filename="/home/renato/path4021.png"
       inkscape:export-xdpi="96"
       inkscape:export-ydpi="96" />
    <path
       style="opacity:1;fill:url(#linearGradient4033);fill-opacity:1;stroke:none;stroke-width:2.84830165;stroke-linecap:butt;stroke-linejoin:round;stroke-miterlimit:4;stroke-dasharray:none;stroke-dashoffset:0;stroke-opacity:1"
       d="m -262.68943,266.05313 c -8.27964,-7.03437 -12.13424,-11.17428 -17.58178,-18.8833 -8.82626,-12.4903 -12.50053,-24.05061 -11.75272,-36.97785 1.51489,-26.19117 15.90435,-58.35824 43.7615,-97.82727 10.05954,-14.252664 26.49631,-34.890041 27.40729,-34.41149 0.77575,0.407709 14.7053,17.70925 20.25937,25.1636 27.09173,36.36102 43.77719,68.77576 49.068,95.32427 1.58241,7.9401 1.72179,21.31785 0.27857,26.72775 -6.71687,25.17724 -32.46971,51.60539 -59.39162,57.86649 -17.7753,4.13391 -38.95349,-6.02764 -52.0488,-16.9822 z"
       id="path4021"
       inkscape:connector-curvature="0"
       sodipodi:nodetypes="ccssccscac"
       inkscape:export-filename="/home/renato/path4021.png"
       inkscape:export-xdpi="96"
       inkscape:export-ydpi="96" />
  </g>
</svg>
