<?xml version="1.0" encoding="utf-8"?>
<svg xmlns="http://www.w3.org/2000/svg" xmlns:xlink="http://www.w3.org/1999/xlink" style="margin: auto; background: rgba(0, 0, 0, 0) none repeat scroll 0% 0%; display: block; shape-rendering: auto;" width="200px" height="200px" viewBox="0 0 100 100" preserveAspectRatio="xMidYMid">
<g transform="translate(50 50)">
<g>
<animateTransform attributeName="transform" type="rotate" values="0;45" keyTimes="0;1" dur="0.3496503496503497s" repeatCount="indefinite"></animateTransform><path d="M22.956480566497994 -7 L31.956480566497994 -7 L31.956480566497994 7 L22.956480566497994 7 A24 24 0 0 1 21.18243054905376 11.282935612442092 L21.18243054905376 11.282935612442092 L27.54639157973269 17.64689664312102 L17.64689664312102 27.54639157973269 L11.282935612442092 21.18243054905376 A24 24 0 0 1 7.0000000000000036 22.95648056649799 L7.0000000000000036 22.95648056649799 L7.000000000000004 31.95648056649799 L-6.999999999999999 31.956480566497994 L-7 22.956480566497994 A24 24 0 0 1 -11.282935612442095 21.18243054905376 L-11.282935612442095 21.18243054905376 L-17.646896643121025 27.54639157973269 L-27.546391579732685 17.64689664312103 L-21.182430549053755 11.282935612442099 A24 24 0 0 1 -22.956480566497994 7 L-22.956480566497994 7 L-31.956480566497994 7.000000000000001 L-31.956480566497994 -6.999999999999993 L-22.956480566497994 -6.999999999999994 A24 24 0 0 1 -21.18243054905376 -11.282935612442094 L-21.18243054905376 -11.282935612442094 L-27.546391579732685 -17.64689664312102 L-17.646896643121018 -27.546391579732692 L-11.282935612442092 -21.182430549053763 A24 24 0 0 1 -7.000000000000011 -22.956480566497987 L-7.000000000000011 -22.956480566497987 L-7.000000000000012 -31.956480566497987 L7.000000000000002 -31.95648056649799 L7.0000000000000036 -22.95648056649799 A24 24 0 0 1 11.282935612442083 -21.182430549053766 L11.282935612442083 -21.182430549053766 L17.64689664312101 -27.546391579732695 L27.546391579732685 -17.64689664312102 L21.18243054905376 -11.282935612442092 A24 24 0 0 1 22.956480566497987 -7.000000000000012 M0 -15A15 15 0 1 0 0 15 A15 15 0 1 0 0 -15" fill="#f08d43"></path></g></g>
<!-- [ldio] generated by https://loading.io/ --></svg>